<?xml version="1.0" encoding="UTF-8"?>
<svg id="Layer_3" data-name="Layer 3" xmlns="http://www.w3.org/2000/svg" xmlns:xlink="http://www.w3.org/1999/xlink" viewBox="0 0 411.9 732.9">
  <defs>
    <style>
      .cls-1 {
        fill: #db594e;
      }

      .cls-2, .cls-3 {
        stroke: #fbbf14;
        stroke-width: 5px;
      }

      .cls-2, .cls-3, .cls-4, .cls-5, .cls-6, .cls-7, .cls-8 {
        fill: none;
      }

      .cls-2, .cls-3, .cls-5, .cls-6, .cls-7, .cls-8 {
        stroke-miterlimit: 10;
      }

      .cls-9 {
        fill: #68af3e;
      }

      .cls-10 {
        fill: #fbbf0d;
      }

      .cls-11 {
        clip-path: url(#clippath);
      }

      .cls-3 {
        stroke-linecap: square;
      }

      .cls-5, .cls-6 {
        stroke: #dc584e;
        stroke-width: 3px;
      }

      .cls-12 {
        fill: #dc584e;
      }

      .cls-6, .cls-7 {
        stroke-dasharray: 0 7;
      }

      .cls-7 {
        stroke: #fbbf0d;
      }

      .cls-8 {
        stroke: #db594e;
      }
    </style>
    <clipPath id="clippath">
      <rect class="cls-4" x="-.05" y="-.05" width="412" height="733"/>
    </clipPath>
  </defs>
  <g class="cls-11">
    <g>
      <polygon class="cls-9" points=".5 .84 92.83 .48 122.74 46.79 .5 94.48 .5 .84"/>
      <path class="cls-10" d="M307.83,41.56c-4.42-.04-7.91-3.64-7.76-8,.14-4.06,3.66-7.29,7.93-7.25,4.24,.04,7.73,3.37,7.76,7.42,.04,4.39-3.49,7.87-7.93,7.83Z"/>
      <path class="cls-12" d="M300.12,394.5c-4.42,.05-7.99-3.48-7.92-7.83,.06-4.1,3.51-7.44,7.74-7.48,4.25-.04,7.74,3.18,7.91,7.3,.19,4.33-3.32,7.96-7.74,8.01Z"/>
      <polygon class="cls-1" points="137.69 -8.43 136.63 21.45 135.57 51.34 110.22 35.48 84.87 19.62 111.28 5.59 137.69 -8.43"/>
      <rect class="cls-7" x="358.95" y="154.17" width="150" height="150" transform="translate(251.27 -226.31) rotate(40.31)"/>
      <rect class="cls-7" x="-97.05" y="400.17" width="150" height="150" transform="translate(302.15 127.08) rotate(40.31)"/>
      <polygon class="cls-8" points="292.47 124.73 248.86 172.18 229.58 110.69 292.47 124.73"/>
      <polygon class="cls-8" points="126.44 182.58 105.31 205.57 95.96 175.77 126.44 182.58"/>
      <rect class="cls-9" x="187.07" y="210.54" width="37.75" height="37.75" transform="translate(512.73 198.9) rotate(126.23)"/>
      <rect class="cls-9" x="107.07" y="497.54" width="37.75" height="37.75" transform="translate(616.94 720.07) rotate(126.23)"/>
      <circle class="cls-9" cx="206" cy="697.98" r="12.5"/>
      <circle class="cls-9" cx="402" cy="558.98" r="10"/>
      <g>
        <path class="cls-6" d="M454.36,500.01c-35.78,14.28-76.36-3.14-90.64-38.92-14.28-35.78,3.14-76.36,38.92-90.64"/>
        <path class="cls-5" d="M402.64,370.45c35.78-14.28,76.36,3.14,90.64,38.92,14.28,35.78-3.14,76.36-38.92,90.64"/>
      </g>
      <path class="cls-12" d="M-79.43,821.7l4.21,.7,23.59-141.24,101.03,17.12-23.93,141.21,3.96,.67,23.93-141.21,101.2,17.15-23.93,141.2,4.21,.71,35.77-211.08h.01s.7-4.21,.7-4.21l-214.87-35.89h0s0,0,0,0l-.71,4.21h.01s-10.93,65.43-10.93,65.43l-.17-.03-.67,3.96,.18,.03-23.59,141.25Zm39.4-209.93l206.35,34.97-11.18,66,.1-.6-206.2-34.94,10.93-65.43Z"/>
      <g>
        <line class="cls-3" x1="334.91" y1="653.08" x2="477.77" y2="623.48"/>
        <line class="cls-3" x1="334.91" y1="653.08" x2="360.13" y2="774.81"/>
        <path class="cls-2" d="M391.43,641.37c.86,3.31,5.82,23.82-7.02,43.67-13.11,20.29-34.51,23.97-37.81,24.48"/>
      </g>
    </g>
  </g>
</svg>