<?xml version="1.0" encoding="UTF-8"?>
<svg id="Capa_2" data-name="Capa 2" xmlns="http://www.w3.org/2000/svg" viewBox="0 0 674.75 1069">
  <defs>
    <style>
      .cls-1 {
        opacity: .7;
      }

      .cls-2 {
        fill: #db594e;
      }

      .cls-3 {
        fill: #333;
      }

      .cls-4 {
        fill: #eab948;
      }

      .cls-5 {
        fill: #68af3e;
      }

      .cls-6 {
        fill: #1d1d1b;
      }
    </style>
  </defs>
  <g id="Eventos">
    <g>
      <g class="cls-1">
        <path class="cls-3" d="M623.35,1068.77H53.43c-8.36,0-15.13-4.98-15.13-11.11V42.6c0-6.14,6.77-11.11,15.13-11.11H623.35c8.36,0,15.13,4.98,15.13,11.11v1015.05c0,6.14-6.77,11.11-15.13,11.11Z"/>
        <path class="cls-6" d="M623.35,1069H53.43c-8.52,0-15.45-5.09-15.45-11.35V42.6c0-6.26,6.93-11.35,15.45-11.35H623.35c8.52,0,15.45,5.09,15.45,11.35v1015.05c0,6.26-6.93,11.35-15.45,11.35ZM53.43,31.72c-8.17,0-14.82,4.88-14.82,10.88v1015.05c0,6,6.65,10.88,14.82,10.88H623.35c8.17,0,14.82-4.88,14.82-10.88V42.6c0-6-6.65-10.88-14.82-10.88H53.43Z"/>
      </g>
      <path class="cls-5" d="M0,992.82c0-18.41,13.77-33.34,30.75-33.34,40.8,1.76,40.78,64.93,0,66.68-16.98,0-30.75-14.93-30.75-33.34Z"/>
      <polygon class="cls-4" points="141.6 63.13 83.21 82.94 64.9 19.8 123.29 0 141.6 63.13"/>
      <polygon class="cls-2" points="674.75 83.66 644.71 157.96 600.22 92.68 674.75 83.66"/>
    </g>
  </g>
</svg>